# xmcd CD database file
#
# Track frame offsets:
#	150
#	22455
#	41820
#	58170
#	83617
#	99537
#	121950
#	142480
#	161295
#	180010
#	201505
#
# Disc length: 3080 seconds
#
# Revision: 0
# Processed by: cddbd v1.5.2PL0 Copyright (c) Steve Scherf et al.
# Submitted via: CDex 1.51
#
DISCID=9c0c060b
DTITLE=The Mighty Orq - To The Bone
DYEAR=2008
DGENRE=Blues
TTITLE0=Falling Down
TTITLE1=Different This Time
TTITLE2=Rainy Day
TTITLE3=H.O.
TTITLE4=Set Me Free
TTITLE5=Hangin' On
TTITLE6=If You Will
TTITLE7=Blue Eyes
TTITLE8=4+1
TTITLE9=The Good Love
TTITLE10=Scars
EXTD=YEAR: 2008
EXTT0=
EXTT1=
EXTT2=
EXTT3=
EXTT4=
EXTT5=
EXTT6=
EXTT7=
EXTT8=
EXTT9=
EXTT10=
PLAYORDER=
